<mxfile>
    <diagram id="Oa_rhLPEikdvsAFEjjor" name="Page">
        <mxGraphModel dx="1315" dy="568" grid="1" gridSize="10" guides="1" tooltips="1" connect="1" arrows="1" fold="1" page="1" pageScale="1" pageWidth="880" pageHeight="300" math="0" shadow="0">
            <root>
                <mxCell id="0"/>
                <mxCell id="1" parent="0"/>
                <mxCell id="BZfjd2AfFlW9gnJilwoc-425" value="" style="edgeStyle=orthogonalEdgeStyle;rounded=0;orthogonalLoop=1;jettySize=auto;html=1;" parent="1" source="BZfjd2AfFlW9gnJilwoc-423" target="BZfjd2AfFlW9gnJilwoc-424" edge="1">
                    <mxGeometry relative="1" as="geometry"/>
                </mxCell>
                <mxCell id="BZfjd2AfFlW9gnJilwoc-423" value="Usuário salva uma senha" style="rounded=0;whiteSpace=wrap;html=1;" parent="1" vertex="1">
                    <mxGeometry x="40" y="80" width="120" height="40" as="geometry"/>
                </mxCell>
                <mxCell id="BZfjd2AfFlW9gnJilwoc-427" value="" style="edgeStyle=orthogonalEdgeStyle;rounded=0;orthogonalLoop=1;jettySize=auto;html=1;" parent="1" source="BZfjd2AfFlW9gnJilwoc-424" target="BZfjd2AfFlW9gnJilwoc-426" edge="1">
                    <mxGeometry relative="1" as="geometry"/>
                </mxCell>
                <mxCell id="BZfjd2AfFlW9gnJilwoc-424" value="A Key é montada, usando o algorítimo pbkdf2 e&amp;nbsp;&lt;span style=&quot;background-color: transparent ; font-family: inherit ; font-style: inherit ; font-weight: inherit ; font-size: 13px ; text-align: left&quot;&gt;sha256&lt;/span&gt;&lt;span&gt;. Username + server salt&lt;/span&gt;" style="rounded=0;whiteSpace=wrap;html=1;" parent="1" vertex="1">
                    <mxGeometry x="230" y="75" width="270" height="50" as="geometry"/>
                </mxCell>
                <mxCell id="BZfjd2AfFlW9gnJilwoc-426" value="Password é encriptada com a key montada, usando o algorítimo aes-256-cbc" style="rounded=0;whiteSpace=wrap;html=1;" parent="1" vertex="1">
                    <mxGeometry x="570" y="75" width="270" height="50" as="geometry"/>
                </mxCell>
                <mxCell id="2" value="Usuário pede uma senha" style="rounded=0;whiteSpace=wrap;html=1;" vertex="1" parent="1">
                    <mxGeometry x="40" y="185" width="120" height="40" as="geometry"/>
                </mxCell>
                <mxCell id="3" value="A Key é montada, usando o algorítimo pbkdf2 e&amp;nbsp;&lt;span style=&quot;background-color: transparent ; font-family: inherit ; font-style: inherit ; font-weight: inherit ; font-size: 13px ; text-align: left&quot;&gt;sha256&lt;/span&gt;&lt;span&gt;. Username + server salt&lt;/span&gt;" style="rounded=0;whiteSpace=wrap;html=1;" vertex="1" parent="1">
                    <mxGeometry x="230" y="180" width="270" height="50" as="geometry"/>
                </mxCell>
                <mxCell id="4" value="Password é decriptada com a key montada, usando o algorítimo aes-256-cbc" style="rounded=0;whiteSpace=wrap;html=1;" vertex="1" parent="1">
                    <mxGeometry x="570" y="180" width="270" height="50" as="geometry"/>
                </mxCell>
            </root>
        </mxGraphModel>
    </diagram>
</mxfile>